<svg width="83" height="30" viewBox="0 0 83 30" fill="none" xmlns="http://www.w3.org/2000/svg">
<path d="M18.0908 0C21.0287 0 21.6207 1.56066 24.047 1.56066C26.6181 1.56066 28.8705 0 28.8705 0L11.6229 17.991L1.71835 8.93274C0.608192 7.91912 0.00645409 6.4904 1.8398e-05 5.07776C-0.00319945 3.93543 0.415121 2.54532 1.70226 1.43516C2.9894 0.325003 4.45352 0 5.88868 0C8.73004 0 9.74044 2.12056 12.0669 2.12056C14.3066 2.12056 15.185 0 18.0908 0Z" fill="#E60000"/>
<path d="M56.8819 5.49931C58.6421 5.49931 59.9871 6.06244 60.9139 7.1919C61.8406 8.32137 62.2171 9.8788 62.0433 11.8707L62.0305 12.0058C62.0144 12.1924 61.847 12.3469 61.6604 12.3469H53.5289C53.5868 14.387 54.742 15.6806 57.1973 15.6806C58.8963 15.6806 60.2896 15.0177 61.6669 14.1038L61.522 15.7707C61.5156 15.8415 61.4866 15.9091 61.4384 15.9638C60.4087 17.09 58.1819 17.9363 56.2319 17.9363C54.2819 17.9363 52.85 17.3667 51.7527 16.2308C50.6554 15.0949 50.1888 13.5825 50.3561 11.6937C50.5138 9.87237 51.1992 8.38572 52.4059 7.23373C53.6126 6.07853 55.1057 5.50253 56.8819 5.50253V5.49931ZM59.2052 10.4355C59.1955 9.56346 58.9896 8.88127 58.5906 8.39216C58.1884 7.89983 57.5995 7.65527 56.8208 7.65527C56.0421 7.65527 55.3663 7.89018 54.8418 8.35998C54.3173 8.82979 53.9505 9.52162 53.7445 10.4355H59.2052Z" fill="#E60000"/>
<path d="M76.942 5.49931C78.4801 5.49931 79.6256 5.82753 80.3818 6.48075C81.1348 7.13397 81.463 8.04784 81.3601 9.21914L80.8484 15.0756C80.8098 15.5293 80.9739 15.7546 81.3408 15.7546C81.4952 15.7546 81.7172 15.687 82.0069 15.5551C82.2965 15.4231 82.541 15.2719 82.7437 15.1014L82.6022 16.7264C82.5925 16.8454 82.5185 16.9613 82.4091 17.0224C81.3182 17.6306 80.34 17.9363 79.4712 17.9363C78.9081 17.9363 78.4801 17.843 78.1937 17.6531C77.9073 17.4665 77.7239 17.1318 77.6467 16.6524C76.366 17.5083 75.1207 17.9331 73.9075 17.9331C73.0452 17.9331 72.3276 17.6435 71.7612 17.061C71.1917 16.4786 70.9439 15.7835 71.0147 14.9726C71.1048 13.9397 71.4845 13.1224 72.1506 12.5239C72.8199 11.9253 73.9397 11.4041 75.5165 10.96L78.1326 10.2167L78.1808 9.66642C78.2838 8.49512 77.6241 7.90948 76.2051 7.90948C75.4778 7.90948 74.741 8.0768 73.9944 8.40824C73.2479 8.7429 72.5496 9.23201 71.906 9.88202L72.0959 7.70032C72.1023 7.61987 72.1409 7.54264 72.2021 7.48472C73.3927 6.37134 75.1947 5.49609 76.942 5.49609V5.49931ZM74.2293 14.4964C74.1907 14.9308 74.3001 15.2816 74.5543 15.5486C74.8085 15.8125 75.14 15.9477 75.5518 15.9477C76.2437 15.9477 76.9645 15.6323 77.711 14.9984L77.9878 11.8449C77.0803 12.1442 76.366 12.4273 75.8447 12.6912C75.3202 12.9551 74.9308 13.2254 74.6702 13.4989C74.4095 13.7724 74.2647 14.107 74.2293 14.4996V14.4964Z" fill="#E60000"/>
<path d="M69.2835 0.868831C67.3013 0.868831 66.1976 0.0965476 66.1976 0.0965476L64.6627 17.6499C64.6466 17.8365 64.7849 17.991 64.9748 17.991H67.4461C67.6327 17.991 67.8001 17.8398 67.8161 17.6499L69.2835 0.868831Z" fill="#E60000"/>
<path d="M43.8013 5.4993C47.5437 5.4993 47.8944 8.66245 47.7722 10.0365L47.1318 17.3603C47.1157 17.5469 46.9484 17.7014 46.7618 17.7014H44.2905C44.1006 17.7014 43.9622 17.5501 43.9783 17.3603L44.4771 11.6647C44.5511 10.8345 44.7023 8.60131 42.2729 8.60131C40.3132 8.60131 39.808 10.5224 39.7082 11.6647L39.2095 17.3603C39.1934 17.5469 39.0261 17.7014 38.8394 17.7014H36.204C36.0174 17.7014 35.8758 17.5501 35.8919 17.3603L36.3906 11.6647C36.4614 10.8441 36.7896 8.60131 34.3602 8.60131C32.246 8.60131 31.7119 10.6189 31.6186 11.6647L31.1198 17.3603C31.1037 17.5469 30.9364 17.7014 30.7498 17.7014H28.2784C28.0918 17.7014 27.9502 17.5501 27.9663 17.3603L28.9832 5.72777C28.9832 5.72777 30.6243 6.74783 31.8953 6.74783C33.4688 6.74783 34.151 5.49608 35.9369 5.49608C38.3857 5.49608 38.2441 6.78966 39.7533 6.78966C41.2625 6.78966 41.6776 5.49608 43.7949 5.49608L43.8013 5.4993Z" fill="#E60000"/>
<path d="M3.71661 27.4418C3.71661 28.3235 4.25078 28.9638 5.39311 28.9638C6.13 28.9638 6.83471 28.6421 7.43001 28.2463L7.36243 29.0539C6.93124 29.5624 5.89188 29.9936 5.02306 29.9936C2.83814 29.9936 2.1463 28.4973 2.26536 27.1425C2.40373 25.5722 3.81315 24.3141 5.62801 24.3141C6.64807 24.3141 7.3206 24.742 7.68744 25.1443L7.61343 26.042C7.08248 25.6462 6.33916 25.2955 5.60227 25.2955C4.64657 25.2955 3.71661 26.042 3.71661 27.4386V27.4418Z" fill="#E60000"/>
<path d="M30.5277 29.7426C30.5213 29.823 30.5824 29.8906 30.6629 29.8906H31.7376C31.8181 29.8906 31.8921 29.823 31.8985 29.7426L32.3458 24.6712C31.4834 24.6712 31.004 24.3366 31.004 24.3366L30.5277 29.7426ZM31.8824 22.1517C31.5027 22.1517 31.197 22.4574 31.197 22.8371C31.197 23.2168 31.5027 23.5225 31.8824 23.5225C32.2621 23.5225 32.5678 23.2168 32.5678 22.8371C32.5678 22.4574 32.2621 22.1517 31.8824 22.1517Z" fill="#E60000"/>
<path d="M27.5705 27.5673L27.7604 25.4017H29.4304L29.5366 24.4653H27.8408L27.9084 23.693C27.046 23.693 26.5666 23.3583 26.5666 23.3583L26.47 24.4685H25.4918L25.3856 25.4049H26.3864L26.0903 28.7676C26.0324 29.4272 26.3156 30 27.1586 30C27.6671 30 28.346 29.8101 28.9832 29.5334L29.054 28.7064C28.8834 28.7836 28.6775 28.8544 28.4361 28.9156C28.1948 28.9767 28.0082 29.0057 27.8794 29.0057C27.5705 29.0057 27.4483 28.9027 27.4676 28.6968L27.5673 27.5737L27.5705 27.5673Z" fill="#E60000"/>
<path d="M12.614 24.7163C12.3308 24.5715 12.0444 24.5007 11.758 24.5007C11.285 24.5007 10.8603 24.7453 10.3486 25.3341L10.339 25.3856L10.4033 24.6745C9.54095 24.6745 9.06149 24.3398 9.06149 24.3398L8.58525 29.7458C8.57881 29.8262 8.63995 29.8938 8.7204 29.8938H9.79516C9.8756 29.8938 9.94961 29.8262 9.95605 29.7458L10.2746 26.1579C10.6415 25.6012 11.4491 25.6591 11.4491 25.6591C11.6679 25.6591 11.8063 25.7106 11.9704 25.7975L12.0605 25.8458L12.717 24.771L12.6172 24.7195L12.614 24.7163Z" fill="#E60000"/>
<path d="M15.8833 24.3141C16.6877 24.3141 17.3024 24.5715 17.7239 25.0863C18.1487 25.6012 18.3192 26.3156 18.2388 27.223L18.2323 27.2841C18.2259 27.371 18.1487 27.4386 18.0618 27.4386H14.3484C14.3741 28.3686 14.9018 28.9606 16.0249 28.9606C16.8004 28.9606 17.4375 28.6582 18.0682 28.2398L18.0006 29.0025C18.0006 29.0346 17.9845 29.0668 17.962 29.0894C17.4922 29.6042 16.4754 29.9903 15.584 29.9903C14.6927 29.9903 14.0395 29.7297 13.5375 29.2116C13.0355 28.6936 12.8231 28.0017 12.9003 27.1393C12.9744 26.3091 13.2865 25.6302 13.8367 25.1024C14.387 24.5747 15.0692 24.3109 15.8833 24.3109V24.3141ZM16.9452 26.5698C16.942 26.1708 16.8486 25.8586 16.6652 25.6366C16.4818 25.4114 16.2115 25.2987 15.8575 25.2987C15.5036 25.2987 15.1947 25.4049 14.9533 25.6205C14.7152 25.8361 14.5479 26.1515 14.4513 26.5698H16.9452Z" fill="#E60000"/>
<path d="M42.5239 24.3141C43.3283 24.3141 43.943 24.5715 44.3645 25.0863C44.7892 25.6012 44.9598 26.3156 44.8793 27.223L44.8729 27.2841C44.8665 27.371 44.7892 27.4386 44.7024 27.4386H40.989C41.0147 28.3686 41.5424 28.9606 42.6655 28.9606C43.441 28.9606 44.0781 28.6582 44.7088 28.2398L44.6412 29.0025C44.6412 29.0346 44.6251 29.0668 44.6026 29.0894C44.1328 29.6042 43.116 29.9903 42.2246 29.9903C41.3333 29.9903 40.6801 29.7297 40.1781 29.2116C39.6761 28.6936 39.4637 28.0017 39.5409 27.1393C39.615 26.3091 39.9271 25.6302 40.4773 25.1024C41.0276 24.5747 41.7098 24.3109 42.5239 24.3109V24.3141ZM43.5858 26.5698C43.5826 26.1708 43.4892 25.8586 43.3058 25.6366C43.1224 25.4114 42.8521 25.2987 42.4981 25.2987C42.1442 25.2987 41.8353 25.4049 41.5939 25.6205C41.3558 25.8361 41.1885 26.1515 41.0919 26.5698H43.5858Z" fill="#E60000"/>
<path d="M21.9618 24.3141C22.6633 24.3141 23.1878 24.4621 23.5321 24.7613C23.8764 25.0606 24.0245 25.4757 23.9794 26.0131L23.7445 28.6903C23.7252 28.8963 23.8024 28.9993 23.9698 28.9993C24.0406 28.9993 24.1403 28.9703 24.2722 28.9092C24.4042 28.848 24.5168 28.7804 24.6101 28.7L24.5458 29.4433C24.5425 29.498 24.5071 29.5495 24.4589 29.5785C23.9601 29.8552 23.5128 29.9968 23.117 29.9968C22.8596 29.9968 22.6665 29.955 22.5346 29.8681C22.4027 29.7812 22.319 29.63 22.2836 29.4111C21.698 29.8005 21.1284 29.9968 20.5749 29.9968C20.1791 29.9968 19.8541 29.8649 19.5935 29.5978C19.3328 29.3339 19.2202 29.0153 19.2524 28.6421C19.2942 28.169 19.468 27.7958 19.7705 27.5223C20.0762 27.2487 20.5878 27.0106 21.3086 26.8079L22.5024 26.4668L22.525 26.2158C22.5732 25.6817 22.2707 25.4146 21.624 25.4146C21.2925 25.4146 20.9546 25.4918 20.6135 25.643C20.2725 25.7943 19.9539 26.0195 19.6579 26.3156L19.7447 25.318C19.7447 25.2826 19.764 25.2472 19.793 25.2183C20.3368 24.7099 21.1606 24.3109 21.9586 24.3109L21.9618 24.3141ZM20.723 28.4265C20.7069 28.626 20.7551 28.7869 20.871 28.9059C20.9868 29.0282 21.1381 29.0861 21.3279 29.0861C21.6433 29.0861 21.9715 28.9413 22.3158 28.6517L22.4413 27.2101C22.0262 27.3453 21.7012 27.474 21.4631 27.5963C21.2249 27.7185 21.0447 27.8408 20.9257 27.9663C20.8066 28.0918 20.739 28.2431 20.7262 28.4233L20.723 28.4265Z" fill="#E60000"/>
<path d="M81.4309 26.6695C81.3247 25.2408 80.3786 24.3173 79.0143 24.3173C78.213 24.3173 77.5373 24.6165 77.061 25.1829C76.5333 25.8104 76.2823 26.7178 76.3595 27.7378C76.4625 29.1473 77.3635 29.9871 78.7665 29.9871C79.5709 29.9871 80.2467 29.6879 80.7229 29.1215C81.2346 28.5134 81.4984 27.5963 81.4309 26.6695ZM78.1744 25.7492C78.3868 25.495 78.6699 25.3663 79.011 25.3663C79.6675 25.3663 80.0343 25.7911 80.0954 26.6309C80.1501 27.3968 79.9764 28.0982 79.6289 28.5101C79.3907 28.7933 79.0786 28.9381 78.7053 28.9381C78.1165 28.9381 77.7464 28.5101 77.6917 27.7636C77.6595 27.3034 77.7142 26.2898 78.1712 25.746L78.1744 25.7492Z" fill="#E60000"/>
<path d="M73.6051 29.7426C73.5986 29.823 73.6598 29.8906 73.7402 29.8906H74.815C74.8954 29.8906 74.9694 29.823 74.9759 29.7426L75.4231 24.6712C74.5608 24.6712 74.0813 24.3366 74.0813 24.3366L73.6051 29.7426ZM74.9598 22.1517C74.5801 22.1517 74.2744 22.4574 74.2744 22.8371C74.2744 23.2168 74.5801 23.5225 74.9598 23.5225C75.3395 23.5225 75.6452 23.2168 75.6452 22.8371C75.6452 22.4574 75.3395 22.1517 74.9598 22.1517Z" fill="#E60000"/>
<path d="M58.0789 27.5673L58.2688 25.4017H59.9389L60.045 24.4653H58.3492L58.4168 23.693C57.5544 23.693 57.075 23.3583 57.075 23.3583L56.9784 24.4685H56.0002L55.894 25.4049H56.8948L56.5987 28.7676C56.5408 29.4272 56.824 30 57.6671 30C58.1755 30 58.8544 29.8101 59.4916 29.5334L59.5624 28.7064C59.3918 28.7836 59.1859 28.8544 58.9445 28.9156C58.7032 28.9767 58.5166 29.0057 58.3879 29.0057C58.0789 29.0057 57.9567 28.9027 57.976 28.6968L58.0757 27.5737L58.0789 27.5673Z" fill="#E60000"/>
<path d="M72.2889 28.9091C72.157 28.9703 72.054 28.9992 71.9865 28.9992C71.8191 28.9992 71.7451 28.8963 71.7612 28.6903L71.9639 26.3767L72.3243 22.3705C71.5424 22.3705 71.1048 22.0648 71.1048 22.0648L70.8184 24.8128H70.7798C70.606 24.6391 70.0751 24.4653 69.5055 24.4653C68.2377 24.4653 67.076 25.6237 66.8797 27.5158C66.6899 29.3468 67.6939 29.9968 68.5208 29.9968C69.0968 29.9968 69.6889 29.8005 70.2939 29.4111C70.3293 29.6299 70.4129 29.7812 70.5449 29.8681C70.6768 29.9549 70.8699 29.9968 71.1273 29.9968C71.5231 29.9968 71.9704 29.8584 72.4691 29.5784C72.5206 29.5495 72.5528 29.498 72.556 29.4433L72.6204 28.7C72.5271 28.7772 72.4144 28.848 72.2825 28.9091H72.2889ZM69.1001 29.0893C68.302 29.0893 67.9481 28.6935 68.0607 27.593C68.1926 26.3188 68.8523 25.4403 69.6954 25.4403C70.0525 25.4403 70.5191 25.5658 70.7058 25.8071L70.4226 28.568C70.0043 28.8577 69.4862 29.0893 69.0968 29.0893H69.1001Z" fill="#E60000"/>
<path d="M36.2973 29.7876L39.0807 24.3173C38.8845 24.4106 38.6689 24.4621 38.4372 24.4621C38.2988 24.4621 38.1669 24.4428 38.0414 24.4106C37.8773 24.3655 37.7035 24.4396 37.6231 24.594L35.9594 27.8537L34.6401 24.4685H33.3401L35.3995 29.7715C35.4285 29.8455 35.4993 29.8906 35.5765 29.8906H36.1268C36.1976 29.8906 36.2619 29.852 36.2941 29.7876H36.2973Z" fill="#E60000"/>
<path d="M54.9705 28.4361C54.9061 29.247 54.1435 29.9936 52.5667 29.9936C51.2989 29.9936 50.3175 29.1054 50.3175 29.1054L50.4365 28.0661C50.9675 28.4619 51.8106 28.9638 52.5474 28.9638C53.1781 28.9638 53.7123 28.6903 53.7123 28.2752C53.7123 27.3774 50.5685 27.4128 50.71 25.6655C50.7712 24.8933 51.6304 24.2272 52.9111 24.2272C54.1145 24.2272 54.964 24.9287 54.964 24.9287L54.845 25.968C54.3398 25.5915 53.5836 25.2022 52.8821 25.2022C52.2836 25.2022 51.9521 25.5272 51.9521 25.8586C51.9521 26.5858 55.1346 26.5762 54.9705 28.4361Z" fill="#E60000"/>
<path d="M65.8725 28.9091C65.7406 28.9703 65.6376 28.9992 65.5701 28.9992C65.4574 28.9992 65.3867 28.951 65.3577 28.8577C65.3545 28.8255 65.3545 28.7901 65.3577 28.7515L65.7503 24.3269C65.5701 24.4138 65.3673 24.4589 65.155 24.4589C65.0262 24.4589 64.8332 24.3977 64.7045 24.3977C64.5661 24.3977 64.4116 24.4331 64.3956 24.6198L64.0545 28.494L64.0094 28.5648C63.6554 28.8544 63.2146 29.0861 62.8864 29.0861C62.6901 29.0861 62.5324 29.025 62.4134 28.9059C62.2911 28.7837 62.2396 28.626 62.2589 28.4265L62.3361 27.5673L62.6096 24.4653H61.2388L60.8559 28.6421C60.8237 29.0121 60.9364 29.3307 61.197 29.5978C61.4577 29.8648 61.7827 29.9968 62.1785 29.9968C62.7319 29.9968 63.3015 29.8005 63.8871 29.4111C63.9225 29.6299 64.0062 29.7812 64.1381 29.8681C64.254 29.9421 64.4181 29.9839 64.6337 29.9936C64.6626 29.9936 64.6884 29.9968 64.7206 29.9968C64.727 29.9968 64.7334 29.9968 64.7366 29.9968C64.7463 29.9968 64.7527 29.9968 64.7624 29.9968C65.1389 29.9968 65.5636 29.8648 66.0399 29.601C66.056 29.5913 66.0688 29.5817 66.0817 29.5688C66.1203 29.5398 66.1493 29.4948 66.1525 29.4465L66.2169 28.7032C66.1235 28.7804 66.0109 28.8512 65.879 28.9124L65.8725 28.9091Z" fill="#E60000"/>
</svg>
